<svg width="24" height="28" viewBox="0 0 24 28" fill="none" xmlns="http://www.w3.org/2000/svg">
<path d="M12 11.3307C10.9452 11.3307 9.91402 11.0179 9.03696 10.4319C8.1599 9.84587 7.47631 9.01292 7.07264 8.03838C6.66897 7.06384 6.56336 5.99148 6.76915 4.95692C6.97493 3.92235 7.48288 2.97204 8.22876 2.22616C8.97464 1.48028 9.92495 0.972331 10.9595 0.766543C11.9941 0.560756 13.0664 0.666373 14.041 1.07004C15.0155 1.47371 15.8485 2.15729 16.4345 3.03436C17.0205 3.91142 17.3333 4.94256 17.3333 5.9974C17.3333 7.41189 16.7714 8.76844 15.7712 9.76863C14.771 10.7688 13.4145 11.3307 12 11.3307ZM12 3.33073C11.4726 3.33073 10.957 3.48713 10.5185 3.78015C10.0799 4.07316 9.73816 4.48964 9.53632 4.97691C9.33449 5.46418 9.28168 6.00036 9.38457 6.51764C9.48747 7.03492 9.74144 7.51008 10.1144 7.88302C10.4873 8.25596 10.9625 8.50993 11.4798 8.61283C11.997 8.71572 12.5332 8.66291 13.0205 8.46108C13.5078 8.25924 13.9242 7.91745 14.2173 7.47892C14.5103 7.04039 14.6667 6.52482 14.6667 5.9974C14.6667 5.29015 14.3857 4.61188 13.8856 4.11178C13.3855 3.61168 12.7072 3.33073 12 3.33073ZM22.6667 27.3307H1.33333C0.979711 27.3307 0.640573 27.1903 0.390524 26.9402C0.140476 26.6902 0 26.351 0 25.9974C4.74244e-08 22.8148 1.26428 19.7626 3.51472 17.5121C5.76515 15.2617 8.8174 13.9974 12 13.9974C15.1826 13.9974 18.2348 15.2617 20.4853 17.5121C22.7357 19.7626 24 22.8148 24 25.9974C24 26.351 23.8595 26.6902 23.6095 26.9402C23.3594 27.1903 23.0203 27.3307 22.6667 27.3307ZM2.76 24.6641H21.24C20.923 22.4393 19.8139 20.4036 18.1165 18.9309C16.419 17.4582 14.2472 16.6474 12 16.6474C9.75275 16.6474 7.58095 17.4582 5.88352 18.9309C4.18609 20.4036 3.07701 22.4393 2.76 24.6641Z" fill="#34C759"/>
</svg>
